<?xml version="1.0" encoding="UTF-8"?>
<svg id="b" data-name="Ebene 2" xmlns="http://www.w3.org/2000/svg" viewBox="1.25 -23 520 520">
  <g id="c" data-name="Ebene 5">
    <path d="M514.98,429.7h0c-11.17-76.57-58.58-146.35-125.78-185.13-2.46,15.84-6.25,31.61-11.31,47.14,43.41,29.19,76.17,75.03,88.48,126.81-51.64,18.24-108.02,12.64-153.84-13.69-.05,.05-.1,.1-.14,.16-26.81-15.01-50.11-35.98-68.72-60.09,.08-.09,.17-.18,.25-.27-14.25-18.52-25.63-38.55-34.22-60.32-14.84,4.01-29.03,9.79-42.3,17.1,2.29,5.78,4.79,11.5,7.46,17.17h-.46c58.82,125.71,197.67,193.08,327.04,135.45h0s16.15-6.95,16.15-6.95l-2.61-17.38Z" style="fill: #7468e8;"/>
    <path d="M205.06,404.83c-43.06,25.23-101.61,32.48-153.88,13.85,12.28-51.85,45.04-97.75,88.5-126.97-.03-.08-.05-.16-.08-.25,25.26-17.01,54.19-28.78,85.07-33.79,0,.03,.01,.05,.02,.08,22.26-3.71,45.97-3.7,68.19,0,4.31-14.62,7.07-29.73,8.01-44.95-13.98-2.3-28.22-3.48-42.55-3.44h0C133.48,207.27,18.68,306.11,2.16,429.72l-2.16,17.38,16.15,6.95s0,0,0,0c73.55,32.42,156.11,26.63,223.18-16.65-12.15-9.84-23.62-20.74-34.27-32.58Z" style="fill: #7468e8;"/>
    <path d="M193.43,194.24c.68-48.64,23.9-101.29,65.13-136.3,82.38,72.19,78.06,178.18,34.94,255.83h.45c-5.95,10.74-12.72,21-20.28,30.84,10.28,11.27,21.77,21.49,34.3,30.23,17.33-21.99,31.93-47.41,42.21-73.44-.12-.07-.25-.13-.38-.2,11.85-29.96,18.44-61.23,19.43-92.12,.15,.06,.3,.12,.45,.19,3.34-85.62-38.39-160.44-110.9-209.27l-13.64,10.17s0,0,0,0c-65.36,48.27-100.1,120.58-97.27,199.11,14.71-6.3,29.95-11.32,45.55-15.04Z" style="fill: #7468e8;"/>
  </g>
</svg>