<?xml version="1.0" encoding="UTF-8" standalone="no"?>
<svg
   id="b"
   data-name="Ebene 2"
   viewBox="0 -40 2099.73 554.86"
   version="1.1"
   sodipodi:docname="logo.svg"
   inkscape:version="1.3.2 (091e20ef0f, 2023-11-25)"
   xmlns:inkscape="http://www.inkscape.org/namespaces/inkscape"
   xmlns:sodipodi="http://sodipodi.sourceforge.net/DTD/sodipodi-0.dtd"
   xmlns="http://www.w3.org/2000/svg"
   xmlns:svg="http://www.w3.org/2000/svg">
  <defs
     id="defs14" />
  <sodipodi:namedview
     id="namedview14"
     pagecolor="#ffffff"
     bordercolor="#666666"
     borderopacity="1.0"
     inkscape:showpageshadow="2"
     inkscape:pageopacity="0.0"
     inkscape:pagecheckerboard="0"
     inkscape:deskcolor="#d1d1d1"
     inkscape:zoom="1.1415754"
     inkscape:cx="1049.865"
     inkscape:cy="277.24845"
     inkscape:window-width="3072"
     inkscape:window-height="1659"
     inkscape:window-x="0"
     inkscape:window-y="0"
     inkscape:window-maximized="1"
     inkscape:current-layer="b" />
  <g
     id="c"
     data-name="Ebene 5">
    <g
       id="g14">
      <g
         id="g10">
        <path
           d="M677.5,350.18c-1.67,0-3.09-.58-4.25-1.75-1.17-1.16-1.75-2.58-1.75-4.25V205.93h-46.25c-1.67,0-3.09-.58-4.25-1.75-1.17-1.16-1.75-2.58-1.75-4.25v-18.5c0-1.83,.58-3.33,1.75-4.5s2.58-1.75,4.25-1.75h127.5c1.83,0,3.33,.59,4.5,1.75,1.16,1.17,1.75,2.67,1.75,4.5v18.5c0,1.67-.59,3.09-1.75,4.25s-2.67,1.75-4.5,1.75h-46v138.25c0,1.67-.59,3.09-1.75,4.25s-2.67,1.75-4.5,1.75h-23Z"
           id="path1" />
        <path
           d="M755.25,350.18c-1.34,0-2.54-.5-3.62-1.5-1.09-1-1.62-2.25-1.62-3.75,0-.66,.16-1.41,.5-2.25l60.25-161.25c.5-1.66,1.46-3.12,2.88-4.38,1.41-1.25,3.38-1.88,5.88-1.88h27.25c2.5,0,4.41,.62,5.75,1.88,1.33,1.25,2.33,2.71,3,4.38l60.25,161.25c.16,.84,.25,1.59,.25,2.25,0,1.5-.5,2.75-1.5,3.75s-2.17,1.5-3.5,1.5h-21.75c-2.34,0-4.04-.54-5.12-1.62-1.09-1.08-1.79-2.12-2.12-3.12l-11.75-30.5h-74.25l-11.75,30.5c-.34,1-1.04,2.04-2.12,3.12s-2.79,1.62-5.12,1.62h-21.75Zm49.5-64h56.75l-28.5-77.25-28.25,77.25Z"
           id="path2" />
        <path
           d="M945.25,350.18c-1.67,0-3.09-.58-4.25-1.75-1.17-1.16-1.75-2.58-1.75-4.25V181.43c0-1.83,.58-3.33,1.75-4.5s2.58-1.75,4.25-1.75h64.75c20.16,0,36.08,4.67,47.75,14,11.66,9.34,17.5,22.92,17.5,40.75,0,12.34-3.04,22.59-9.12,30.75-6.09,8.17-14.21,14.09-24.38,17.75l36.5,63.75c.5,1,.75,1.92,.75,2.75,0,1.5-.54,2.75-1.62,3.75-1.09,1-2.29,1.5-3.62,1.5h-22.75c-2.84,0-5-.75-6.5-2.25s-2.67-3-3.5-4.5l-32.25-59.25h-34.75v60c0,1.67-.54,3.09-1.62,4.25-1.09,1.17-2.54,1.75-4.38,1.75h-22.75Zm28.75-94.25h35.25c10.16,0,17.75-2.29,22.75-6.88,5-4.58,7.5-11.04,7.5-19.38s-2.46-14.88-7.38-19.62c-4.92-4.75-12.54-7.12-22.88-7.12h-35.25v53Z"
           id="path3" />
        <path
           d="M1096.74,350.18c-1.34,0-2.54-.5-3.62-1.5-1.09-1-1.62-2.25-1.62-3.75,0-.66,.16-1.41,.5-2.25l60.25-161.25c.5-1.66,1.46-3.12,2.88-4.38,1.41-1.25,3.38-1.88,5.88-1.88h27.25c2.5,0,4.41,.62,5.75,1.88,1.33,1.25,2.33,2.71,3,4.38l60.25,161.25c.16,.84,.25,1.59,.25,2.25,0,1.5-.5,2.75-1.5,3.75s-2.17,1.5-3.5,1.5h-21.75c-2.34,0-4.04-.54-5.12-1.62-1.09-1.08-1.79-2.12-2.12-3.12l-11.75-30.5h-74.25l-11.75,30.5c-.34,1-1.04,2.04-2.12,3.12s-2.79,1.62-5.12,1.62h-21.75Zm49.5-64h56.75l-28.5-77.25-28.25,77.25Z"
           id="path4" />
        <path
           d="M1286.74,350.18c-1.67,0-3.09-.58-4.25-1.75-1.17-1.16-1.75-2.58-1.75-4.25V181.43c0-1.83,.58-3.33,1.75-4.5s2.58-1.75,4.25-1.75h19.25c2.33,0,4.04,.54,5.12,1.62,1.08,1.09,1.79,1.88,2.12,2.38l72,112v-109.75c0-1.83,.54-3.33,1.62-4.5,1.08-1.16,2.54-1.75,4.38-1.75h21c1.83,0,3.33,.59,4.5,1.75,1.16,1.17,1.75,2.67,1.75,4.5v162.5c0,1.84-.59,3.34-1.75,4.5s-2.59,1.75-4.25,1.75h-19.5c-2.34,0-4-.58-5-1.75-1-1.16-1.75-1.91-2.25-2.25l-71.75-109.5v107.5c0,1.67-.59,3.09-1.75,4.25s-2.67,1.75-4.5,1.75h-21Z"
           id="path5" />
        <path
           d="M1463.49,350.18c-1.67,0-3.09-.58-4.25-1.75-1.17-1.16-1.75-2.58-1.75-4.25V181.18c0-1.66,.58-3.08,1.75-4.25s2.58-1.75,4.25-1.75h23.5c1.83,0,3.29,.59,4.38,1.75,1.08,1.17,1.62,2.59,1.62,4.25v163c0,1.67-.54,3.09-1.62,4.25-1.09,1.17-2.54,1.75-4.38,1.75h-23.5Z"
           id="path6" />
        <path
           d="M1592.99,352.68c-15.5,0-28.46-2.29-38.88-6.88-10.42-4.58-18.34-10.58-23.75-18-5.42-7.41-8.29-15.21-8.62-23.38,0-1.5,.5-2.75,1.5-3.75s2.25-1.5,3.75-1.5h22.25c2.16,0,3.79,.46,4.88,1.38,1.08,.92,2.04,2.04,2.88,3.38,1,3.17,2.91,6.29,5.75,9.38,2.83,3.09,6.71,5.62,11.62,7.62,4.91,2,11.12,3,18.62,3,12,0,20.96-2,26.88-6,5.91-4,8.88-9.41,8.88-16.25,0-4.83-1.59-8.71-4.75-11.62-3.17-2.91-8.04-5.58-14.62-8-6.59-2.41-15.29-4.96-26.12-7.62-12.5-3-22.96-6.62-31.38-10.88-8.42-4.25-14.75-9.62-19-16.12s-6.38-14.75-6.38-24.75,2.62-18.25,7.88-25.75,12.75-13.41,22.5-17.75c9.75-4.33,21.38-6.5,34.88-6.5,10.83,0,20.41,1.46,28.75,4.38,8.33,2.92,15.25,6.75,20.75,11.5s9.71,9.84,12.62,15.25c2.91,5.42,4.46,10.71,4.62,15.88,0,1.34-.46,2.54-1.38,3.62-.92,1.09-2.21,1.62-3.88,1.62h-23.25c-1.34,0-2.67-.33-4-1-1.34-.66-2.42-1.91-3.25-3.75-1-5.16-4.25-9.58-9.75-13.25-5.5-3.66-12.59-5.5-21.25-5.5s-16.25,1.67-21.75,5c-5.5,3.34-8.25,8.5-8.25,15.5,0,4.67,1.38,8.54,4.12,11.62,2.75,3.09,7.16,5.79,13.25,8.12,6.08,2.34,14.12,4.84,24.12,7.5,14.16,3.17,25.75,6.84,34.75,11,9,4.17,15.58,9.46,19.75,15.88,4.16,6.42,6.25,14.54,6.25,24.38,0,11-2.96,20.38-8.88,28.12-5.92,7.75-14.21,13.71-24.88,17.88-10.67,4.16-23.09,6.25-37.25,6.25Z"
           id="path7" />
        <path
           d="M1690.99,368.18c-1.84,0-3.34-.62-4.5-1.88-1.17-1.25-1.75-2.71-1.75-4.38v-23.5c0-1.83,.58-3.33,1.75-4.5s2.66-1.75,4.5-1.75h148.5c1.66,0,3.12,.59,4.38,1.75,1.25,1.17,1.88,2.67,1.88,4.5v23.5c0,1.66-.62,3.12-1.88,4.38s-2.71,1.88-4.38,1.88h-148.5Z"
           style="fill: #7468e8;"
           id="path8" />
        <path
           d="M1864.74,350.18c-1.34,0-2.54-.54-3.62-1.62-1.09-1.08-1.62-2.29-1.62-3.62,0-.83,.08-1.58,.25-2.25l58.75-160.5c.5-1.83,1.54-3.46,3.12-4.88,1.58-1.41,3.79-2.12,6.62-2.12h37c2.83,0,5.04,.71,6.62,2.12,1.58,1.42,2.62,3.04,3.12,4.88l58.5,160.5c.33,.67,.5,1.42,.5,2.25,0,1.34-.54,2.54-1.62,3.62s-2.38,1.62-3.88,1.62h-30.75c-2.5,0-4.38-.62-5.62-1.88s-2.04-2.38-2.38-3.38l-9.75-25.5h-66.75l-9.5,25.5c-.34,1-1.09,2.12-2.25,3.38-1.17,1.25-3.17,1.88-6,1.88h-30.75Zm58.75-66.75h46.5l-23.5-66-23,66Z"
           style="fill: #7468e8;"
           id="path9" />
        <path
           d="M2059.98,350.18c-1.84,0-3.34-.58-4.5-1.75-1.17-1.16-1.75-2.66-1.75-4.5V181.43c0-1.83,.58-3.33,1.75-4.5s2.66-1.75,4.5-1.75h33.5c1.83,0,3.33,.59,4.5,1.75,1.16,1.17,1.75,2.67,1.75,4.5v162.5c0,1.84-.59,3.34-1.75,4.5s-2.67,1.75-4.5,1.75h-33.5Z"
           style="fill: #7468e8;"
           id="path10" />
      </g>
      <g
         id="g13">
        <path
           d="M514.98,429.7h0c-11.17-76.57-58.58-146.35-125.78-185.13-2.46,15.84-6.25,31.61-11.31,47.14,43.41,29.19,76.17,75.03,88.48,126.81-51.64,18.24-108.02,12.64-153.84-13.69-.05,.05-.1,.1-.14,.16-26.81-15.01-50.11-35.98-68.72-60.09,.08-.09,.17-.18,.25-.27-14.25-18.52-25.63-38.55-34.22-60.32-14.84,4.01-29.03,9.79-42.3,17.1,2.29,5.78,4.79,11.5,7.46,17.17h-.46c58.82,125.71,197.67,193.08,327.04,135.45h0s16.15-6.95,16.15-6.95l-2.61-17.38Z"
           style="fill: #7468e8;"
           id="path11" />
        <path
           d="M205.06,404.83c-43.06,25.23-101.61,32.48-153.88,13.85,12.28-51.85,45.04-97.75,88.5-126.97-.03-.08-.05-.16-.08-.25,25.26-17.01,54.19-28.78,85.07-33.79,0,.03,.01,.05,.02,.08,22.26-3.71,45.97-3.7,68.19,0,4.31-14.62,7.07-29.73,8.01-44.95-13.98-2.3-28.22-3.48-42.55-3.44h0C133.48,207.27,18.68,306.11,2.16,429.72l-2.16,17.38,16.15,6.95s0,0,0,0c73.55,32.42,156.11,26.63,223.18-16.65-12.15-9.84-23.62-20.74-34.27-32.58Z"
           style="fill: #7468e8;"
           id="path12" />
        <path
           d="M193.43,194.24c.68-48.64,23.9-101.29,65.13-136.3,82.38,72.19,78.06,178.18,34.94,255.83h.45c-5.95,10.74-12.72,21-20.28,30.84,10.28,11.27,21.77,21.49,34.3,30.23,17.33-21.99,31.93-47.41,42.21-73.44-.12-.07-.25-.13-.38-.2,11.85-29.96,18.44-61.23,19.43-92.12,.15,.06,.3,.12,.45,.19,3.34-85.62-38.39-160.44-110.9-209.27l-13.64,10.17s0,0,0,0c-65.36,48.27-100.1,120.58-97.27,199.11,14.71-6.3,29.95-11.32,45.55-15.04Z"
           style="fill: #7468e8;"
           id="path13" />
      </g>
    </g>
  </g>
  <path
     style="fill:#ffffff;stroke-width:0.875982"
     d="m 673.78322,387.78478 -1.90467,-2.02742 v -70.24113 -70.24114 h -24.46393 -24.46393 l -1.88265,-2.39341 c -1.73697,-2.20819 -1.86052,-3.23118 -1.59655,-13.2191 0.26821,-10.14843 0.41548,-10.93032 2.35411,-12.49829 1.99378,-1.61257 4.40277,-1.6726 67.11352,-1.6726 64.47839,0 65.06565,0.0158 67.35361,1.81554 2.28081,1.79409 2.30809,1.94939 2.30809,13.13974 0,16.099 2.40249,14.82812 -28.03144,14.82812 h -24.52751 v 70.51659 c 0,69.34862 -0.029,70.54561 -1.75196,72.26855 -1.59955,1.59955 -2.91995,1.75197 -15.177,1.75197 -12.90041,0 -13.49946,-0.0792 -15.32969,-2.02742 z"
     id="path14"
     transform="translate(0,-40)" />
  <path
     style="fill:#ffffff;stroke-width:0.875982"
     d="m 752.05246,388.08401 c -1.06061,-1.17197 -1.4045,-2.51118 -1.06847,-4.16092 1.18028,-5.7946 61.20817,-164.5974 62.83332,-166.22453 1.62105,-1.62303 3.08511,-1.79124 17.75612,-2.03999 16.96808,-0.28771 19.78877,0.16824 22.00963,3.5577 1.94082,2.96207 61.81862,163.57182 61.81862,165.81561 0,4.11621 -2.21707,4.78032 -15.95861,4.78032 -10.86532,0 -13.02615,-0.22708 -14.58708,-1.53297 -1.07,-0.89516 -4.34831,-8.09332 -7.87939,-17.30065 l -6.04702,-15.76769 -37.70234,-0.22825 -37.70235,-0.22825 -1.73054,4.60816 c -7.39566,19.69364 -10.98595,27.94644 -12.67132,29.12692 -1.47516,1.03324 -4.69177,1.32273 -14.69751,1.32273 -11.63784,0 -12.95207,-0.15802 -14.37306,-1.72819 z M 861.7672,325.64648 c -6.02482,-17.04701 -28.40916,-76.86746 -28.7632,-76.86746 -0.2716,0 -6.65144,16.85171 -14.17743,37.44825 -7.526,20.59654 -13.94878,38.13809 -14.27286,38.98122 -0.5539,1.44103 1.15574,1.53297 28.50562,1.53297 22.89829,0 29.01244,-0.2332 28.70787,-1.09498 z"
     id="path15"
     transform="translate(0,-40)" />
  <path
     style="fill:#ffffff;stroke-width:0.875982"
     d="m 941.68116,388.06023 c -1.72751,-1.7275 -1.75197,-2.91993 -1.75197,-85.40829 0,-82.48835 0.0245,-83.68078 1.75197,-85.40829 1.69467,-1.69468 2.91994,-1.75196 37.47123,-1.75196 45.63731,0 53.90061,0.96121 68.08461,7.91985 12.6428,6.20247 20.109,14.56693 24.6832,27.65258 2.1828,6.24441 2.4146,8.05601 2.3978,18.73848 -0.016,10.47523 -0.2772,12.54765 -2.2829,18.14687 -4.3253,12.07493 -13.952,22.49597 -25.893,28.02945 -2.5294,1.17214 -4.5989,2.34979 -4.5989,2.61702 0,0.26723 8.278,14.97009 18.3956,32.67303 10.1176,17.70294 18.3956,32.96489 18.3956,33.91546 0,0.95055 -0.7514,2.40831 -1.6698,3.23944 -1.4649,1.32574 -3.3974,1.47674 -15.7501,1.23074 -13.6793,-0.27241 -14.1424,-0.34278 -16.2562,-2.47036 -1.1967,-1.20447 -9.5889,-15.78958 -18.6494,-32.41135 l -16.4736,-30.22139 -18.15939,-0.23677 -18.15939,-0.23677 v 31.50347 31.50347 l -1.94687,1.36365 c -1.54885,1.08485 -4.59337,1.36364 -14.8917,1.36364 -11.77685,0 -13.1029,-0.15807 -14.69679,-1.75197 z m 83.85524,-94.48659 c 6.0635,-2.74111 11.1386,-8.33973 12.8822,-14.21103 2.9424,-9.90807 1.0746,-21.41437 -4.5411,-27.97505 -6.4929,-7.58544 -11.5448,-8.71686 -38.98041,-8.73002 l -21.68057,-0.0104 v 26.78015 26.78014 l 23.87053,-0.28194 c 22.90425,-0.27052 24.05585,-0.36571 28.44935,-2.35185 z"
     id="path16"
     transform="translate(0,-40)" />
  <path
     style="fill:#ffffff;stroke-width:0.875982"
     d="m 1093.7999,388.21025 c -0.7974,-0.88107 -1.4498,-2.37604 -1.4498,-3.32218 0,-2.10251 60.0152,-162.89109 61.8531,-165.71256 2.1786,-3.34455 5.049,-3.80394 21.9752,-3.51694 14.7186,0.24956 16.131,0.41293 17.7717,2.05554 1.7279,1.72998 62.0064,161.07488 62.8792,166.21976 0.2682,1.58076 -0.1342,3.04989 -1.1397,4.16092 -1.4088,1.55673 -2.7526,1.71741 -14.3633,1.71741 -9.998,0 -13.2229,-0.28988 -14.6949,-1.32093 -1.0373,-0.7265 -3.064,-4.37278 -4.5038,-8.10284 -1.4399,-3.73004 -4.2575,-11.02363 -6.2613,-16.20797 l -3.6435,-9.42607 -37.6704,0.22826 -37.6705,0.22824 -6.0473,15.76769 c -3.631,9.46759 -6.7912,16.38019 -7.9092,17.30065 -1.5867,1.30636 -3.7698,1.53297 -14.7689,1.53297 -11.3915,0 -13.0771,-0.18808 -14.3566,-1.60195 z m 109.4572,-62.85053 c -0.2916,-0.75995 -6.7144,-18.20295 -14.2729,-38.76222 -7.5585,-20.55927 -13.8663,-37.54473 -14.0172,-37.74548 -0.151,-0.20075 -0.4787,-0.16083 -0.7282,0.0887 -0.4387,0.43871 -28.4537,76.67184 -28.4537,77.42692 0,0.20561 13.0505,0.37382 29.0011,0.37382 26.051,0 28.9472,-0.14056 28.4709,-1.38174 z"
     id="path17"
     transform="translate(0,-40)" />
  <path
     style="fill:#ffffff;stroke-width:0.875982"
     d="m 1283.5092,388.44856 -1.9468,-1.36365 v -84.43297 -84.43296 l 1.9468,-1.36365 c 2.6572,-1.86113 23.9379,-1.98065 26.5527,-0.14913 0.9537,0.66798 18.0902,26.68069 38.0812,57.80603 19.991,31.12534 36.6428,56.59549 37.0042,56.60033 0.3613,0.005 0.657,-25.21948 0.657,-56.05406 0,-54.89491 0.036,-56.09938 1.7519,-57.81485 1.5857,-1.58565 2.92,-1.75196 14.0556,-1.75196 11.895,0 12.3749,0.0714 14.4537,2.15014 l 2.1501,2.15014 v 82.85997 82.85998 l -2.1501,2.15014 c -2.0674,2.06737 -2.5985,2.1501 -13.7967,2.14907 -10.8244,-10e-4 -11.8054,-0.14014 -13.8961,-1.97096 -1.2373,-1.08344 -18.4745,-26.74563 -38.305,-57.02709 l -36.0555,-55.0572 -0.2382,55.3539 -0.2383,55.35391 -2.068,1.67425 c -1.8105,1.46581 -3.5585,1.67426 -14.0398,1.67426 -9.4177,0 -12.3872,-0.29093 -13.9187,-1.36364 z"
     id="path18"
     transform="translate(0,-40)" />
  <path
     style="fill:#ffffff;stroke-width:0.875982"
     d="m 1459.785,387.66206 -2.1502,-2.15014 v -82.85998 -82.85997 l 2.1502,-2.15014 c 2.0975,-2.09758 2.4814,-2.15014 15.7041,-2.15014 h 13.5539 l 1.8156,2.30809 c 1.8077,2.29812 1.8155,2.66624 1.8155,85.25559 v 82.94751 l -2.0274,1.90466 c -1.8984,1.78345 -2.8765,1.90466 -15.3695,1.90466 -12.9977,0 -13.3976,-0.0555 -15.4922,-2.15014 z"
     id="path19"
     transform="translate(0,-40)" />
  <path
     style="fill:#ffffff;stroke-width:0.875982"
     d="m 1581.5863,391.82732 c -26.3543,-2.3942 -46.8457,-14.37671 -55.4039,-32.39785 -3.376,-7.10893 -4.7616,-15.92961 -2.8619,-18.21865 0.9036,-1.08874 3.675,-1.32962 15.2973,-1.32962 15.8626,0 15.9812,0.0435 19.2203,7.04185 6.3971,13.82172 25.9167,20.31936 48.7856,16.23969 10.2395,-1.82666 16.9546,-5.85616 20.2704,-12.16351 2.6056,-4.95632 2.7208,-13.81745 0.2337,-17.96628 -3.6348,-6.06323 -14.3775,-11.14884 -35.4677,-16.79042 -7.4677,-1.99761 -17.9138,-5.02091 -23.2135,-6.71845 -24.303,-7.78445 -36.6892,-18.83722 -40.3221,-35.9812 -4.854,-22.90663 5.6478,-42.85156 28.0584,-53.2879 22.6331,-10.54001 55.9043,-9.19696 76.684,3.09549 8.7452,5.1733 16.8696,13.81183 20.9584,22.2846 4.3504,9.01488 5.2308,14.58641 2.7042,17.113 -1.6581,1.65811 -2.8502,1.79864 -15.2582,1.79864 -15.2993,0 -16.9177,-0.58022 -18.7705,-6.72935 -3.2897,-10.91811 -18.328,-17.99842 -35.2335,-16.58856 -17.2891,1.44186 -25.7728,8.26347 -25.7311,20.68996 0.012,3.56051 0.5599,6.72148 1.4624,8.43648 4.0598,7.71521 15.2254,12.82902 44.4292,20.34848 30.2848,7.79778 44.2489,15.45516 51.0832,28.01194 6.71,12.32849 6.5193,31.05878 -0.4493,44.1332 -3.7386,7.01443 -13.641,16.15777 -21.8966,20.21805 -14.8627,7.30988 -34.9879,10.54017 -54.5788,8.76041 z"
     id="path20"
     transform="translate(0,-40)" />
</svg>
